HIERARCHY
ROOT Hips
{
  OFFSET 5.84602e-005 68.8428 3.50346
  CHANNELS 6 Xposition Yposition Zposition Zrotation Xrotation Yrotation
  JOINT Spine
  {
    OFFSET 0 8.597 -4.6522
    CHANNELS 3 Zrotation Xrotation Yrotation
    JOINT Spine1
    {
      OFFSET 0 7.8454 0.4098
      CHANNELS 3 Zrotation Xrotation Yrotation
      JOINT Spine2
      {
        OFFSET 0 9.7078 -2.1609
        CHANNELS 3 Zrotation Xrotation Yrotation
        JOINT Neck
        {
          OFFSET 0 21.8761 -0.4549
          CHANNELS 3 Zrotation Xrotation Yrotation
          JOINT Head
          {
            OFFSET 0 12.3537 3.3602
            CHANNELS 3 Zrotation Xrotation Yrotation
            End Site
            {
              OFFSET 0.0001 18.9506 0.5657
            }
          }
        }
        JOINT LeftShoulder
        {
          OFFSET 2.2086 21.1115 7.2329
          CHANNELS 3 Zrotation Xrotation Yrotation
          JOINT LeftArm
          {
            OFFSET 13.1193 3.0282 -4.8998
            CHANNELS 3 Zrotation Xrotation Yrotation
            JOINT LeftForeArm
            {
              OFFSET 27.4081 -0.0973053 -0.2375
              CHANNELS 3 Zrotation Xrotation Yrotation
              JOINT LeftHand
              {
                OFFSET 22.8641 0.0662994 -0.1369
                CHANNELS 3 Zrotation Xrotation Yrotation
                JOINT LeftHandIndex1
                {
                  OFFSET 8.8614 0.775009 2.4612
                  CHANNELS 3 Zrotation Xrotation Yrotation
                  JOINT LeftHandIndex2
                  {
                    OFFSET 3.3146 -0.808304 0.5841
                    CHANNELS 3 Zrotation Xrotation Yrotation
                    JOINT LeftHandIndex3
                    {
                      OFFSET 2.2628 -0.552002 0.3989
                      CHANNELS 3 Zrotation Xrotation Yrotation
                      End Site
                      {
                        OFFSET 1.6102 -0.4807 0.2612
                      }
                    }
                  }
                }
                JOINT LeftHandMiddle1
                {
                  OFFSET 8.9937 0.895004 0.2143
                  CHANNELS 3 Zrotation Xrotation Yrotation
                  JOINT LeftHandMiddle2
                  {
                    OFFSET 4.0984 0.0113983 -0.0242
                    CHANNELS 3 Zrotation Xrotation Yrotation
                    JOINT LeftHandMiddle3
                    {
                      OFFSET 2.2716 0.00689697 -0.0138001
                      CHANNELS 3 Zrotation Xrotation Yrotation
                      End Site
                      {
                        OFFSET 2.0404 -0.1441 0.0027
                      }
                    }
                  }
                }
                JOINT LeftHandRing1
                {
                  OFFSET 8.5234 0.597198 -2.0164
                  CHANNELS 3 Zrotation Xrotation Yrotation
                  JOINT LeftHandRing2
                  {
                    OFFSET 3.7188 -0.188293 -0.2328
                    CHANNELS 3 Zrotation Xrotation Yrotation
                    JOINT LeftHandRing3
                    {
                      OFFSET 2.1191 -0.106598 -0.1332
                      CHANNELS 3 Zrotation Xrotation Yrotation
                      End Site
                      {
                        OFFSET 1.8737 -0.2304 -0.0886
                      }
                    }
                  }
                }
                JOINT LeftHandPinky1
                {
                  OFFSET 7.9094 -0.601089 -3.4825
                  CHANNELS 3 Zrotation Xrotation Yrotation
                  JOINT LeftHandPinky2
                  {
                    OFFSET 2.2874 -0.477005 -0.6314
                    CHANNELS 3 Zrotation Xrotation Yrotation
                    JOINT LeftHandPinky3
                    {
                      OFFSET 1.6774 -0.349396 -0.4633
                      CHANNELS 3 Zrotation Xrotation Yrotation
                      End Site
                      {
                        OFFSET 1.4888 -0.4091 -0.3416
                      }
                    }
                  }
                }
                JOINT LeftHandThumb1
                {
                  OFFSET 1.833 -1.3875 1.3896
                  CHANNELS 3 Zrotation Xrotation Yrotation
                  JOINT LeftHandThumb2
                  {
                    OFFSET 3.4129 -1.121 2.5732
                    CHANNELS 3 Zrotation Xrotation Yrotation
                    JOINT LeftHandThumb3
                    {
                      OFFSET 2.2474 -0.804199 1.6192
                      CHANNELS 3 Zrotation Xrotation Yrotation
                      End Site
                      {
                        OFFSET 1.6527 -0.5689 1.1317
                      }
                    }
                  }
                }
              }
            }
          }
        }
        JOINT RightShoulder
        {
          OFFSET -2.2086 21.1115 7.2329
          CHANNELS 3 Zrotation Xrotation Yrotation
          JOINT RightArm
          {
            OFFSET -13.1216 3.0287 -4.9007
            CHANNELS 3 Zrotation Xrotation Yrotation
            JOINT RightForeArm
            {
              OFFSET -27.4081 -0.0973053 -0.2375
              CHANNELS 3 Zrotation Xrotation Yrotation
              JOINT RightHand
              {
                OFFSET -22.8641 0.0664063 -0.1369
                CHANNELS 3 Zrotation Xrotation Yrotation
                JOINT RightHandIndex1
                {
                  OFFSET -8.8614 0.774994 2.4612
                  CHANNELS 3 Zrotation Xrotation Yrotation
                  JOINT RightHandIndex2
                  {
                    OFFSET -3.3146 -0.808304 0.5841
                    CHANNELS 3 Zrotation Xrotation Yrotation
                    JOINT RightHandIndex3
                    {
                      OFFSET -2.2628 -0.552002 0.3989
                      CHANNELS 3 Zrotation Xrotation Yrotation
                      End Site
                      {
                        OFFSET -1.6102 -0.4807 0.2612
                      }
                    }
                  }
                }
                JOINT RightHandMiddle1
                {
                  OFFSET -8.9937 0.894989 0.2143
                  CHANNELS 3 Zrotation Xrotation Yrotation
                  JOINT RightHandMiddle2
                  {
                    OFFSET -4.0984 0.0113983 -0.0242
                    CHANNELS 3 Zrotation Xrotation Yrotation
                    JOINT RightHandMiddle3
                    {
                      OFFSET -2.2716 0.00691223 -0.0138001
                      CHANNELS 3 Zrotation Xrotation Yrotation
                      End Site
                      {
                        OFFSET -2.0404 -0.1441 0.0027
                      }
                    }
                  }
                }
                JOINT RightHandRing1
                {
                  OFFSET -8.5234 0.597198 -2.0164
                  CHANNELS 3 Zrotation Xrotation Yrotation
                  JOINT RightHandRing2
                  {
                    OFFSET -3.7188 -0.188309 -0.2328
                    CHANNELS 3 Zrotation Xrotation Yrotation
                    JOINT RightHandRing3
                    {
                      OFFSET -2.1191 -0.106598 -0.1332
                      CHANNELS 3 Zrotation Xrotation Yrotation
                      End Site
                      {
                        OFFSET -1.8737 -0.2304 -0.0886
                      }
                    }
                  }
                }
                JOINT RightHandPinky1
                {
                  OFFSET -7.9094 -0.601105 -3.4825
                  CHANNELS 3 Zrotation Xrotation Yrotation
                  JOINT RightHandPinky2
                  {
                    OFFSET -2.2874 -0.477005 -0.6314
                    CHANNELS 3 Zrotation Xrotation Yrotation
                    JOINT RightHandPinky3
                    {
                      OFFSET -1.6774 -0.349396 -0.4633
                      CHANNELS 3 Zrotation Xrotation Yrotation
                      End Site
                      {
                        OFFSET -1.4888 -0.4091 -0.3416
                      }
                    }
                  }
                }
                JOINT RightHandThumb1
                {
                  OFFSET -1.833 -1.38751 1.3896
                  CHANNELS 3 Zrotation Xrotation Yrotation
                  JOINT RightHandThumb2
                  {
                    OFFSET -3.41299 -1.12099 2.5732
                    CHANNELS 3 Zrotation Xrotation Yrotation
                    JOINT RightHandThumb3
                    {
                      OFFSET -2.24741 -0.804108 1.6192
                      CHANNELS 3 Zrotation Xrotation Yrotation
                      End Site
                      {
                        OFFSET -1.6527 -0.5689 1.1317
                      }
                    }
                  }
                }
              }
            }
          }
        }
      }
    }
  }
  JOINT RightUpLeg
  {
    OFFSET -9.1966 3.8861 -0.7581
    CHANNELS 3 Zrotation Xrotation Yrotation
    JOINT RightLeg
    {
      OFFSET -0.7359 -41.0265 0
      CHANNELS 3 Zrotation Xrotation Yrotation
      JOINT RightFoot
      {
        OFFSET 0 -40.2855 0
        CHANNELS 3 Zrotation Xrotation Yrotation
        JOINT RightToeBase
        {
          OFFSET 0 -5.6122 11.7359
          CHANNELS 3 Zrotation Xrotation Yrotation
          End Site
          {
            OFFSET 0 0 7.8731
          }
        }
      }
    }
  }
  JOINT LeftUpLeg
  {
    OFFSET 9.1965 3.8864 -0.7581
    CHANNELS 3 Zrotation Xrotation Yrotation
    JOINT LeftLeg
    {
      OFFSET 0.7359 -41.0268 0
      CHANNELS 3 Zrotation Xrotation Yrotation
      JOINT LeftFoot
      {
        OFFSET 0 -40.2855 0
        CHANNELS 3 Zrotation Xrotation Yrotation
        JOINT LeftToeBase
        {
          OFFSET 0 -5.6122 11.7359
          CHANNELS 3 Zrotation Xrotation Yrotation
          End Site
          {
            OFFSET 0 0 7.8731
          }
        }
      }
    }
  }
}
MOTION
Frames:	4
Frame Time:	0.0333333
-0.888073 2.5718 6.9738 -180 -84.6892 -180 0.142583 0.170254 -0.300635 0.28606 0.339761 -0.601697 0.28606 0.339764 -0.601697 16.2751 -0.961082 0.278847 10.9999 -0.466441 0.0904767 0.526225 -0.425774 0.9167 -79.4256 2.33998 -14.2935 -0.39271 9.26893 -53.2312 -46.4652 1.03958 14.1757 -9.14409e-015 2.78299e-015 3.18055e-015 -6.75868e-015 6.75868e-015 3.18055e-015 -4.37326e-015 -3.97569e-016 -3.18055e-015 -9.14409e-015 2.78299e-015 3.18055e-015 -0.0146603 -8.8381e-005 -2.42615e-006 -6.75868e-015 2.78299e-015 -3.18055e-015 -9.14409e-015 2.78299e-015 3.18055e-015 -0.0187547 -0.00117651 5.27432e-005 -5.96354e-015 3.57812e-015 3.18055e-015 -9.14409e-015 2.78299e-015 3.18055e-015 -0.0122591 -0.00324587 0.000676582 1.59028e-015 -1.19271e-014 6.36111e-015 -9.14409e-015 2.78299e-015 3.18055e-015 -6.75868e-015 6.75868e-015 3.18055e-015 -4.37326e-015 -3.97569e-016 -3.18055e-015 -20.313 -13.2247 7.63518 72.2502 -0.087919 22.4805 5.82206 20.6166 79.8319 58.1182 -8.62897 18.3228 2.0709e-007 2.67979e-008 4.41383e-008 1.03545e-007 1.33989e-008 2.20691e-008 2.0709e-007 2.67979e-008 4.41383e-008 2.0709e-007 2.67979e-008 4.41383e-008 0.0149777 -9.12479e-005 9.31833e-007 2.0709e-007 2.68037e-008 4.41346e-008 2.0709e-007 2.67979e-008 4.41383e-008 0.0190193 -0.00119409 -5.77776e-005 2.0709e-007 2.68054e-008 4.41317e-008 2.0709e-007 2.67979e-008 4.41383e-008 0.0122863 -0.00325181 -0.000678083 2.07091e-007 2.68039e-008 4.41295e-008 2.0709e-007 2.67979e-008 4.41383e-008 1.03545e-007 1.33989e-008 2.20691e-008 2.0709e-007 2.67979e-008 4.41383e-008 -11.8998 -23.5025 -8.1832 55.6841 75.085 -63.6727 6.12799 30.5268 -5.62209 1.75167e-006 5.76672e-007 1.53738e-006 9.68595 -24.5099 11.745 -80.0994 77.8729 87.5768 -3.3439 24.13 7.02086 -5.12727e-008 2.09052e-007 -8.22354e-007 
-0.888084 2.50514 6.91135 -180 -84.3885 -180 0.141201 0.215682 -0.299151 0.283529 0.430607 -0.598838 0.283529 0.430623 -0.598838 16.0501 -0.961984 0.274799 10.9999 -0.441878 0.0857121 0.414584 -0.629322 0.765126 -79.4256 2.33996 -14.2935 -0.387057 9.21262 -52.5948 -46.4727 1.18764 14.041 4.37326e-015 3.97569e-016 -9.54166e-015 2.61072e-007 7.70078e-007 -2.37618e-007 3.18055e-015 1.19271e-015 3.18055e-015 4.37326e-015 3.97569e-016 -9.54166e-015 -0.0145959 -8.94264e-005 -2.59199e-006 6.36111e-015 -7.15625e-015 3.18055e-015 4.37326e-015 3.97569e-016 -9.54166e-015 -0.0187524 -0.00117609 5.86395e-005 8.34896e-015 -3.97569e-016 9.54166e-015 4.37326e-015 3.97569e-016 -9.54166e-015 -0.01227 -0.00324998 0.000675956 3.97569e-016 1.19271e-015 -9.54166e-015 4.37326e-015 3.97569e-016 -9.54166e-015 2.61072e-007 7.70078e-007 -2.37618e-007 3.18055e-015 1.19271e-015 3.18055e-015 -20.0168 -12.8571 8.00648 72.0218 -0.222082 22.5416 5.79334 20.4628 79.6832 58.3126 -8.21661 18.4429 -2.3059e-014 -9.54166e-015 -1.27222e-014 -6.21252e-007 -8.00435e-008 -1.32617e-007 -2.07084e-007 -2.66812e-008 -4.42058e-008 -2.3059e-014 -9.54166e-015 -1.27222e-014 0.0149936 -9.19012e-005 -1.40779e-006 -2.07084e-007 -2.6687e-008 -4.42022e-008 -2.3059e-014 -9.54166e-015 -1.27222e-014 0.0189847 -0.00119012 -6.0081e-005 -2.07084e-007 -2.66886e-008 -4.41993e-008 -2.3059e-014 -9.54166e-015 -1.27222e-014 0.0122831 -0.00325118 -0.000679868 -2.07085e-007 -2.66872e-008 -4.41971e-008 -2.3059e-014 -9.54166e-015 -1.27222e-014 -6.21252e-007 -8.00435e-008 -1.32617e-007 -2.07084e-007 -2.66812e-008 -4.42058e-008 -11.962 -23.2254 -8.26906 55.7085 75.0891 -63.7015 5.95268 30.6522 -5.53763 7.79076e-008 7.62024e-008 3.75518e-007 9.69459 -24.2615 11.7495 -80.1328 77.8741 87.6127 -3.27874 24.2515 7.02145 -1.26799e-008 1.53324e-007 -6.39511e-007 
-0.888102 2.43838 6.84871 -180 -84.0878 -180 0.139893 0.261178 -0.297772 0.281147 0.521648 -0.59619 0.281147 0.521638 -0.59619 15.8248 -0.963211 0.271413 10.9998 -0.417327 0.0809485 0.302132 -0.83301 0.613741 -79.4256 2.33996 -14.2935 -0.380761 9.15636 -51.9586 -46.4799 1.3357 13.9062 1.11319e-014 3.57812e-015 -6.36111e-015 -4.0313e-006 -1.44468e-006 -2.17678e-006 -7.15625e-015 1.98785e-015 3.18055e-015 1.11319e-014 3.57812e-015 -6.36111e-015 -0.0146031 -8.91849e-005 -1.29688e-006 -1.59028e-015 3.97569e-015 3.18055e-015 1.11319e-014 3.57812e-015 -6.36111e-015 -0.0187655 -0.00117577 5.65758e-005 -2.78299e-015 4.77083e-015 -1.27222e-014 1.11319e-014 3.57812e-015 -6.36111e-015 -0.0122937 -0.00325661 0.000670784 3.57812e-015 3.97569e-015 -3.18055e-015 1.11319e-014 3.57812e-015 -6.36111e-015 -4.0313e-006 -1.44468e-006 -2.17678e-006 -7.15625e-015 1.98785e-015 3.18055e-015 -19.7236 -12.4883 8.37568 71.7935 -0.356474 22.6021 5.76421 20.309 79.5346 58.5059 -7.80391 18.5616 2.07076e-007 2.65639e-008 4.4274e-008 3.31332e-007 5.31993e-007 1.21532e-007 7.73863e-008 1.20431e-006 -1.60934e-008 2.07076e-007 2.65639e-008 4.4274e-008 0.014984 -9.29969e-005 3.10636e-006 7.91933e-008 1.2043e-006 -1.62506e-008 2.07076e-007 2.65639e-008 4.4274e-008 0.0190492 -0.00119079 -5.86682e-005 2.07076e-007 2.65713e-008 4.42674e-008 2.07076e-007 2.65639e-008 4.4274e-008 0.0122654 -0.00324651 -0.000674226 2.07077e-007 2.65699e-008 4.42653e-008 2.07076e-007 2.65639e-008 4.4274e-008 3.31332e-007 5.31993e-007 1.21532e-007 7.73863e-008 1.20431e-006 -1.60934e-008 -12.0236 -22.9483 -8.35439 55.7331 75.0933 -63.7303 5.77689 30.7774 -5.45259 -1.59028e-015 -4.77083e-015 -0 9.70317 -24.0136 11.7539 -80.1682 77.8754 87.6509 -3.21348 24.3732 7.02189 3.97579e-008 4.11232e-007 1.04463e-007 
-0.88812 2.37149 6.78589 -180 -83.7872 -180 0.138558 0.306576 -0.29628 0.278705 0.612417 -0.593311 0.278705 0.612436 -0.593311 15.5998 -0.964146 0.267375 10.9998 -0.392782 0.0761894 0.189373 -1.03593 0.461438 -79.4256 2.33997 -14.2935 -0.37385 9.10017 -51.3226 -46.4868 1.48379 13.7715 -0 -3.10104e-014 -0 -4.77083e-015 -3.22031e-014 -1.27222e-014 -5.1684e-015 -3.1408e-014 3.18055e-015 -0 -3.10104e-014 -0 -0.0145831 -8.66923e-005 2.52375e-006 -5.96354e-015 -5.96354e-015 -3.18055e-015 -0 -3.10104e-014 -0 -0.0187582 -0.00117649 6.03432e-005 -8.74653e-015 4.77083e-015 -9.54166e-015 -0 -3.10104e-014 -0 -0.0122716 -0.00324811 0.000678057 -6.36111e-015 7.15625e-015 3.18055e-015 -0 -3.10104e-014 -0 -4.77083e-015 -3.22031e-014 -1.27222e-014 -5.1684e-015 -3.1408e-014 3.18055e-015 -19.4332 -12.1171 8.74204 71.5654 -0.491109 22.662 5.73469 20.1554 79.386 58.6981 -7.39084 18.6787 2.07067e-007 2.64463e-008 4.43431e-008 -4.50343e-009 1.68298e-006 1.25665e-008 2.07067e-007 2.64463e-008 4.43431e-008 2.07067e-007 2.64463e-008 4.43431e-008 0.0149869 -8.79123e-005 -1.19862e-007 2.07066e-007 2.6452e-008 4.43395e-008 2.07067e-007 2.64463e-008 4.43431e-008 0.0190014 -0.00118975 -6.20521e-005 2.07066e-007 2.64538e-008 4.43366e-008 2.07067e-007 2.64463e-008 4.43431e-008 0.0122556 -0.00324383 -0.000669583 2.07067e-007 2.64523e-008 4.43344e-008 2.07067e-007 2.64463e-008 4.43431e-008 -4.50343e-009 1.68298e-006 1.25665e-008 2.07067e-007 2.64463e-008 4.43431e-008 -12.0847 -22.6712 -8.43918 55.758 75.0975 -63.7596 5.60065 30.9022 -5.36697 6.36111e-015 3.18055e-015 3.18055e-015 9.71162 -23.7661 11.7582 -80.2055 77.8767 87.6912 -3.14822 24.4947 7.02216 -7.12081e-008 1.30463e-007 -3.62427e-007 
